<mxfile host="app.diagrams.net" modified="2023-12-01T10:40:04.734Z" agent="Mozilla/5.0 (Windows NT 10.0; Win64; x64; rv:120.0) Gecko/20100101 Firefox/120.0" etag="Ky0VBOhBYKEZv7GVRxWa" version="22.1.5" type="device">
  <diagram id="C5RBs43oDa-KdzZeNtuy" name="Page-1">
    <mxGraphModel dx="2963" dy="1631" grid="1" gridSize="10" guides="1" tooltips="1" connect="1" arrows="1" fold="1" page="1" pageScale="1" pageWidth="827" pageHeight="1169" math="0" shadow="0">
      <root>
        <mxCell id="WIyWlLk6GJQsqaUBKTNV-0" />
        <mxCell id="WIyWlLk6GJQsqaUBKTNV-1" parent="WIyWlLk6GJQsqaUBKTNV-0" />
        <mxCell id="_dDXrvmrKJK-yegpXpzj-1" value="" style="edgeStyle=orthogonalEdgeStyle;rounded=0;orthogonalLoop=1;jettySize=auto;html=1;entryX=0.5;entryY=0;entryDx=0;entryDy=0;" parent="WIyWlLk6GJQsqaUBKTNV-1" source="_dDXrvmrKJK-yegpXpzj-0" target="_dDXrvmrKJK-yegpXpzj-164" edge="1">
          <mxGeometry relative="1" as="geometry">
            <mxPoint x="148.75" y="130" as="targetPoint" />
          </mxGeometry>
        </mxCell>
        <mxCell id="_dDXrvmrKJK-yegpXpzj-0" value="main.java&lt;br&gt;Start" style="strokeWidth=2;html=1;shape=mxgraph.flowchart.start_1;whiteSpace=wrap;" parent="WIyWlLk6GJQsqaUBKTNV-1" vertex="1">
          <mxGeometry x="98.75" y="30" width="100" height="60" as="geometry" />
        </mxCell>
        <mxCell id="_dDXrvmrKJK-yegpXpzj-4" value="" style="edgeStyle=orthogonalEdgeStyle;rounded=0;orthogonalLoop=1;jettySize=auto;html=1;" parent="WIyWlLk6GJQsqaUBKTNV-1" source="_dDXrvmrKJK-yegpXpzj-2" target="_dDXrvmrKJK-yegpXpzj-3" edge="1">
          <mxGeometry relative="1" as="geometry" />
        </mxCell>
        <mxCell id="_dDXrvmrKJK-yegpXpzj-55" value="&lt;div style=&quot;font-size: 14px;&quot;&gt;&lt;font style=&quot;font-size: 14px;&quot;&gt;No&lt;/font&gt;&lt;/div&gt;" style="edgeLabel;html=1;align=center;verticalAlign=middle;resizable=0;points=[];labelBackgroundColor=none;fontSize=14;" parent="_dDXrvmrKJK-yegpXpzj-4" vertex="1" connectable="0">
          <mxGeometry x="-0.0086" y="1" relative="1" as="geometry">
            <mxPoint x="-2" y="-7" as="offset" />
          </mxGeometry>
        </mxCell>
        <mxCell id="_dDXrvmrKJK-yegpXpzj-14" value="" style="edgeStyle=orthogonalEdgeStyle;rounded=0;orthogonalLoop=1;jettySize=auto;html=1;" parent="WIyWlLk6GJQsqaUBKTNV-1" source="_dDXrvmrKJK-yegpXpzj-2" target="_dDXrvmrKJK-yegpXpzj-13" edge="1">
          <mxGeometry relative="1" as="geometry" />
        </mxCell>
        <mxCell id="_dDXrvmrKJK-yegpXpzj-53" value="&lt;font style=&quot;font-size: 14px;&quot;&gt;Yes&lt;/font&gt;" style="edgeLabel;html=1;align=center;verticalAlign=middle;resizable=0;points=[];labelBackgroundColor=none;fontSize=14;" parent="_dDXrvmrKJK-yegpXpzj-14" vertex="1" connectable="0">
          <mxGeometry x="-0.2621" y="-2" relative="1" as="geometry">
            <mxPoint x="-12" as="offset" />
          </mxGeometry>
        </mxCell>
        <mxCell id="_dDXrvmrKJK-yegpXpzj-2" value="File found and read" style="strokeWidth=2;html=1;shape=mxgraph.flowchart.decision;whiteSpace=wrap;" parent="WIyWlLk6GJQsqaUBKTNV-1" vertex="1">
          <mxGeometry x="98.75" y="220" width="100" height="100" as="geometry" />
        </mxCell>
        <mxCell id="_dDXrvmrKJK-yegpXpzj-10" value="" style="edgeStyle=orthogonalEdgeStyle;rounded=0;orthogonalLoop=1;jettySize=auto;html=1;entryX=0.5;entryY=0;entryDx=0;entryDy=0;entryPerimeter=0;" parent="WIyWlLk6GJQsqaUBKTNV-1" source="_dDXrvmrKJK-yegpXpzj-3" target="_dDXrvmrKJK-yegpXpzj-7" edge="1">
          <mxGeometry relative="1" as="geometry">
            <mxPoint x="393.75" y="360" as="targetPoint" />
          </mxGeometry>
        </mxCell>
        <mxCell id="_dDXrvmrKJK-yegpXpzj-3" value="&lt;div style=&quot;line-height: 110%;&quot; align=&quot;center&quot;&gt;Ouput: File, rates.csv, was not found.&lt;/div&gt;" style="shape=parallelogram;perimeter=parallelogramPerimeter;whiteSpace=wrap;html=1;fixedSize=1;strokeWidth=2;align=center;" parent="WIyWlLk6GJQsqaUBKTNV-1" vertex="1">
          <mxGeometry x="268.75" y="235" width="250" height="70" as="geometry" />
        </mxCell>
        <mxCell id="_dDXrvmrKJK-yegpXpzj-7" value="End" style="strokeWidth=2;html=1;shape=mxgraph.flowchart.terminator;whiteSpace=wrap;" parent="WIyWlLk6GJQsqaUBKTNV-1" vertex="1">
          <mxGeometry x="343.75" y="370" width="100" height="60" as="geometry" />
        </mxCell>
        <mxCell id="_dDXrvmrKJK-yegpXpzj-16" value="" style="edgeStyle=orthogonalEdgeStyle;rounded=0;orthogonalLoop=1;jettySize=auto;html=1;" parent="WIyWlLk6GJQsqaUBKTNV-1" source="_dDXrvmrKJK-yegpXpzj-13" target="_dDXrvmrKJK-yegpXpzj-15" edge="1">
          <mxGeometry relative="1" as="geometry" />
        </mxCell>
        <mxCell id="_dDXrvmrKJK-yegpXpzj-13" value="Create UserInterface class" style="whiteSpace=wrap;html=1;strokeWidth=2;" parent="WIyWlLk6GJQsqaUBKTNV-1" vertex="1">
          <mxGeometry x="88.75" y="370" width="120" height="60" as="geometry" />
        </mxCell>
        <mxCell id="_dDXrvmrKJK-yegpXpzj-18" value="" style="edgeStyle=orthogonalEdgeStyle;rounded=0;orthogonalLoop=1;jettySize=auto;html=1;" parent="WIyWlLk6GJQsqaUBKTNV-1" source="_dDXrvmrKJK-yegpXpzj-15" target="_dDXrvmrKJK-yegpXpzj-17" edge="1">
          <mxGeometry relative="1" as="geometry" />
        </mxCell>
        <mxCell id="_dDXrvmrKJK-yegpXpzj-15" value="Run UserInterface loop" style="shape=process;whiteSpace=wrap;html=1;backgroundOutline=1;strokeWidth=2;" parent="WIyWlLk6GJQsqaUBKTNV-1" vertex="1">
          <mxGeometry x="61.25" y="470" width="175" height="70" as="geometry" />
        </mxCell>
        <mxCell id="_dDXrvmrKJK-yegpXpzj-20" value="" style="edgeStyle=orthogonalEdgeStyle;rounded=0;orthogonalLoop=1;jettySize=auto;html=1;" parent="WIyWlLk6GJQsqaUBKTNV-1" source="_dDXrvmrKJK-yegpXpzj-17" edge="1">
          <mxGeometry relative="1" as="geometry">
            <mxPoint x="148.75" y="680" as="targetPoint" />
          </mxGeometry>
        </mxCell>
        <mxCell id="_dDXrvmrKJK-yegpXpzj-17" value="Create Employee from userInterfaceLoop" style="whiteSpace=wrap;html=1;strokeWidth=2;" parent="WIyWlLk6GJQsqaUBKTNV-1" vertex="1">
          <mxGeometry x="88.75" y="580" width="120" height="60" as="geometry" />
        </mxCell>
        <mxCell id="_dDXrvmrKJK-yegpXpzj-71" value="" style="edgeStyle=orthogonalEdgeStyle;rounded=0;orthogonalLoop=1;jettySize=auto;html=1;" parent="WIyWlLk6GJQsqaUBKTNV-1" source="_dDXrvmrKJK-yegpXpzj-22" target="_dDXrvmrKJK-yegpXpzj-70" edge="1">
          <mxGeometry relative="1" as="geometry" />
        </mxCell>
        <mxCell id="_dDXrvmrKJK-yegpXpzj-22" value="Set Employee Salary to userInterfaceLoop" style="whiteSpace=wrap;html=1;strokeWidth=2;" parent="WIyWlLk6GJQsqaUBKTNV-1" vertex="1">
          <mxGeometry x="88.75" y="680" width="120" height="60" as="geometry" />
        </mxCell>
        <mxCell id="_dDXrvmrKJK-yegpXpzj-62" value="" style="edgeStyle=orthogonalEdgeStyle;rounded=0;orthogonalLoop=1;jettySize=auto;html=1;" parent="WIyWlLk6GJQsqaUBKTNV-1" source="_dDXrvmrKJK-yegpXpzj-26" target="_dDXrvmrKJK-yegpXpzj-61" edge="1">
          <mxGeometry relative="1" as="geometry" />
        </mxCell>
        <mxCell id="_dDXrvmrKJK-yegpXpzj-26" value="Run Salary.applyIncomeTax to Employee Salary" style="shape=process;whiteSpace=wrap;html=1;backgroundOutline=1;strokeWidth=2;" parent="WIyWlLk6GJQsqaUBKTNV-1" vertex="1">
          <mxGeometry x="40" y="880" width="217.5" height="70" as="geometry" />
        </mxCell>
        <mxCell id="_dDXrvmrKJK-yegpXpzj-99" value="" style="edgeStyle=orthogonalEdgeStyle;rounded=0;orthogonalLoop=1;jettySize=auto;html=1;" parent="WIyWlLk6GJQsqaUBKTNV-1" source="_dDXrvmrKJK-yegpXpzj-28" edge="1">
          <mxGeometry relative="1" as="geometry">
            <mxPoint x="647.5714285714284" y="210.06997084548084" as="targetPoint" />
          </mxGeometry>
        </mxCell>
        <mxCell id="_dDXrvmrKJK-yegpXpzj-28" value="Run UserInterface&lt;br&gt;checkForParking" style="shape=process;whiteSpace=wrap;html=1;backgroundOutline=1;strokeWidth=2;" parent="WIyWlLk6GJQsqaUBKTNV-1" vertex="1">
          <mxGeometry x="560" y="122.5" width="175" height="55" as="geometry" />
        </mxCell>
        <mxCell id="_dDXrvmrKJK-yegpXpzj-97" value="" style="edgeStyle=orthogonalEdgeStyle;rounded=0;orthogonalLoop=1;jettySize=auto;html=1;" parent="WIyWlLk6GJQsqaUBKTNV-1" source="_dDXrvmrKJK-yegpXpzj-30" edge="1">
          <mxGeometry relative="1" as="geometry">
            <mxPoint x="647.5999999999999" y="510.0979591836733" as="targetPoint" />
          </mxGeometry>
        </mxCell>
        <mxCell id="_dDXrvmrKJK-yegpXpzj-30" value="Run UserInterface&lt;br&gt;checkForPension" style="shape=process;whiteSpace=wrap;html=1;backgroundOutline=1;strokeWidth=2;" parent="WIyWlLk6GJQsqaUBKTNV-1" vertex="1">
          <mxGeometry x="560" y="410" width="175" height="60" as="geometry" />
        </mxCell>
        <mxCell id="_dDXrvmrKJK-yegpXpzj-98" value="" style="edgeStyle=orthogonalEdgeStyle;rounded=0;orthogonalLoop=1;jettySize=auto;html=1;" parent="WIyWlLk6GJQsqaUBKTNV-1" source="_dDXrvmrKJK-yegpXpzj-34" target="_dDXrvmrKJK-yegpXpzj-28" edge="1">
          <mxGeometry relative="1" as="geometry" />
        </mxCell>
        <mxCell id="_dDXrvmrKJK-yegpXpzj-34" value="A" style="ellipse;whiteSpace=wrap;html=1;aspect=fixed;" parent="WIyWlLk6GJQsqaUBKTNV-1" vertex="1">
          <mxGeometry x="617.5" y="30" width="60" height="60" as="geometry" />
        </mxCell>
        <mxCell id="_dDXrvmrKJK-yegpXpzj-37" value="A" style="ellipse;whiteSpace=wrap;html=1;aspect=fixed;" parent="WIyWlLk6GJQsqaUBKTNV-1" vertex="1">
          <mxGeometry x="118.75" y="1090" width="60" height="60" as="geometry" />
        </mxCell>
        <mxCell id="_dDXrvmrKJK-yegpXpzj-45" value="" style="edgeStyle=orthogonalEdgeStyle;rounded=0;orthogonalLoop=1;jettySize=auto;html=1;exitX=0.499;exitY=1.003;exitDx=0;exitDy=0;exitPerimeter=0;" parent="WIyWlLk6GJQsqaUBKTNV-1" source="_dDXrvmrKJK-yegpXpzj-104" target="_dDXrvmrKJK-yegpXpzj-30" edge="1">
          <mxGeometry relative="1" as="geometry">
            <mxPoint x="647.5714285714284" y="329.93002915451916" as="sourcePoint" />
          </mxGeometry>
        </mxCell>
        <mxCell id="_dDXrvmrKJK-yegpXpzj-59" value="&lt;font style=&quot;font-size: 14px;&quot;&gt;No&lt;/font&gt;" style="edgeLabel;html=1;align=center;verticalAlign=middle;resizable=0;points=[];labelBackgroundColor=none;" parent="_dDXrvmrKJK-yegpXpzj-45" vertex="1" connectable="0">
          <mxGeometry x="-0.3352" y="-2" relative="1" as="geometry">
            <mxPoint x="-9" y="-13" as="offset" />
          </mxGeometry>
        </mxCell>
        <mxCell id="_dDXrvmrKJK-yegpXpzj-47" value="" style="edgeStyle=orthogonalEdgeStyle;rounded=0;orthogonalLoop=1;jettySize=auto;html=1;exitX=1;exitY=0.5;exitDx=0;exitDy=0;exitPerimeter=0;" parent="WIyWlLk6GJQsqaUBKTNV-1" source="_dDXrvmrKJK-yegpXpzj-104" target="_dDXrvmrKJK-yegpXpzj-46" edge="1">
          <mxGeometry relative="1" as="geometry">
            <mxPoint x="708.75" y="270" as="sourcePoint" />
          </mxGeometry>
        </mxCell>
        <mxCell id="_dDXrvmrKJK-yegpXpzj-58" value="&lt;font style=&quot;font-size: 14px;&quot;&gt;Yes&lt;/font&gt;" style="edgeLabel;html=1;align=center;verticalAlign=middle;resizable=0;points=[];labelBackgroundColor=none;" parent="_dDXrvmrKJK-yegpXpzj-47" vertex="1" connectable="0">
          <mxGeometry x="-0.1222" y="-1" relative="1" as="geometry">
            <mxPoint x="1" y="-10" as="offset" />
          </mxGeometry>
        </mxCell>
        <mxCell id="_dDXrvmrKJK-yegpXpzj-50" style="edgeStyle=orthogonalEdgeStyle;rounded=0;orthogonalLoop=1;jettySize=auto;html=1;exitX=0.5;exitY=1;exitDx=0;exitDy=0;entryX=0.5;entryY=0;entryDx=0;entryDy=0;" parent="WIyWlLk6GJQsqaUBKTNV-1" source="_dDXrvmrKJK-yegpXpzj-46" target="_dDXrvmrKJK-yegpXpzj-30" edge="1">
          <mxGeometry relative="1" as="geometry">
            <mxPoint x="740" y="410" as="targetPoint" />
            <Array as="points">
              <mxPoint x="860" y="380" />
              <mxPoint x="648" y="380" />
            </Array>
          </mxGeometry>
        </mxCell>
        <mxCell id="_dDXrvmrKJK-yegpXpzj-46" value="Run Salary.applyParking to Employee Salary" style="shape=process;whiteSpace=wrap;html=1;backgroundOutline=1;" parent="WIyWlLk6GJQsqaUBKTNV-1" vertex="1">
          <mxGeometry x="780" y="235" width="160" height="60" as="geometry" />
        </mxCell>
        <mxCell id="_dDXrvmrKJK-yegpXpzj-63" value="" style="edgeStyle=orthogonalEdgeStyle;rounded=0;orthogonalLoop=1;jettySize=auto;html=1;" parent="WIyWlLk6GJQsqaUBKTNV-1" source="_dDXrvmrKJK-yegpXpzj-61" target="_dDXrvmrKJK-yegpXpzj-37" edge="1">
          <mxGeometry relative="1" as="geometry" />
        </mxCell>
        <mxCell id="_dDXrvmrKJK-yegpXpzj-61" value="Run Salary.applyNationalInsurnace to Employee Salary" style="shape=process;whiteSpace=wrap;html=1;backgroundOutline=1;strokeWidth=2;" parent="WIyWlLk6GJQsqaUBKTNV-1" vertex="1">
          <mxGeometry x="40" y="990" width="217.5" height="70" as="geometry" />
        </mxCell>
        <mxCell id="_dDXrvmrKJK-yegpXpzj-66" value="Mandatory deduction" style="strokeWidth=2;html=1;shape=mxgraph.flowchart.annotation_2;align=left;labelPosition=right;pointerEvents=1;" parent="WIyWlLk6GJQsqaUBKTNV-1" vertex="1">
          <mxGeometry x="279.5" y="880" width="50" height="70" as="geometry" />
        </mxCell>
        <mxCell id="_dDXrvmrKJK-yegpXpzj-68" value="Mandatory deduction" style="strokeWidth=2;html=1;shape=mxgraph.flowchart.annotation_2;align=left;labelPosition=right;pointerEvents=1;" parent="WIyWlLk6GJQsqaUBKTNV-1" vertex="1">
          <mxGeometry x="279.5" y="990" width="50" height="70" as="geometry" />
        </mxCell>
        <mxCell id="_dDXrvmrKJK-yegpXpzj-69" value="Optional deduction" style="strokeWidth=2;html=1;shape=mxgraph.flowchart.annotation_2;align=left;labelPosition=right;pointerEvents=1;" parent="WIyWlLk6GJQsqaUBKTNV-1" vertex="1">
          <mxGeometry x="750" y="120" width="50" height="60" as="geometry" />
        </mxCell>
        <mxCell id="_dDXrvmrKJK-yegpXpzj-72" value="" style="edgeStyle=orthogonalEdgeStyle;rounded=0;orthogonalLoop=1;jettySize=auto;html=1;" parent="WIyWlLk6GJQsqaUBKTNV-1" source="_dDXrvmrKJK-yegpXpzj-70" target="_dDXrvmrKJK-yegpXpzj-26" edge="1">
          <mxGeometry relative="1" as="geometry" />
        </mxCell>
        <mxCell id="_dDXrvmrKJK-yegpXpzj-70" value="Pass tax rates into Employee Salary" style="whiteSpace=wrap;html=1;strokeWidth=2;" parent="WIyWlLk6GJQsqaUBKTNV-1" vertex="1">
          <mxGeometry x="88.75" y="780" width="120" height="60" as="geometry" />
        </mxCell>
        <mxCell id="_dDXrvmrKJK-yegpXpzj-76" value="Optional deduction" style="strokeWidth=2;html=1;shape=mxgraph.flowchart.annotation_2;align=left;labelPosition=right;pointerEvents=1;" parent="WIyWlLk6GJQsqaUBKTNV-1" vertex="1">
          <mxGeometry x="750" y="410" width="50" height="60" as="geometry" />
        </mxCell>
        <mxCell id="_dDXrvmrKJK-yegpXpzj-88" value="" style="edgeStyle=orthogonalEdgeStyle;rounded=0;orthogonalLoop=1;jettySize=auto;html=1;exitX=1;exitY=0.5;exitDx=0;exitDy=0;exitPerimeter=0;" parent="WIyWlLk6GJQsqaUBKTNV-1" source="_dDXrvmrKJK-yegpXpzj-105" target="_dDXrvmrKJK-yegpXpzj-87" edge="1">
          <mxGeometry relative="1" as="geometry">
            <mxPoint x="708.75" y="570" as="sourcePoint" />
          </mxGeometry>
        </mxCell>
        <mxCell id="_dDXrvmrKJK-yegpXpzj-90" value="" style="edgeStyle=orthogonalEdgeStyle;rounded=0;orthogonalLoop=1;jettySize=auto;html=1;exitX=0.5;exitY=1;exitDx=0;exitDy=0;exitPerimeter=0;" parent="WIyWlLk6GJQsqaUBKTNV-1" source="_dDXrvmrKJK-yegpXpzj-105" edge="1">
          <mxGeometry relative="1" as="geometry">
            <mxPoint x="647.5999999999999" y="629.9020408163267" as="sourcePoint" />
            <mxPoint x="647.5" y="720" as="targetPoint" />
          </mxGeometry>
        </mxCell>
        <mxCell id="_dDXrvmrKJK-yegpXpzj-103" style="edgeStyle=orthogonalEdgeStyle;rounded=0;orthogonalLoop=1;jettySize=auto;html=1;entryX=0.5;entryY=0;entryDx=0;entryDy=0;" parent="WIyWlLk6GJQsqaUBKTNV-1" source="_dDXrvmrKJK-yegpXpzj-87" edge="1">
          <mxGeometry relative="1" as="geometry">
            <Array as="points">
              <mxPoint x="860" y="680" />
              <mxPoint x="648" y="680" />
            </Array>
            <mxPoint x="647.5050000000001" y="720" as="targetPoint" />
          </mxGeometry>
        </mxCell>
        <mxCell id="_dDXrvmrKJK-yegpXpzj-87" value="Run Salary.applyPension to Employee Salary" style="shape=process;whiteSpace=wrap;html=1;backgroundOutline=1;" parent="WIyWlLk6GJQsqaUBKTNV-1" vertex="1">
          <mxGeometry x="780" y="535" width="160" height="60" as="geometry" />
        </mxCell>
        <mxCell id="_dDXrvmrKJK-yegpXpzj-91" value="End" style="strokeWidth=2;html=1;shape=mxgraph.flowchart.terminator;whiteSpace=wrap;" parent="WIyWlLk6GJQsqaUBKTNV-1" vertex="1">
          <mxGeometry x="597.5" y="820" width="100" height="60" as="geometry" />
        </mxCell>
        <mxCell id="_dDXrvmrKJK-yegpXpzj-94" value="&lt;font style=&quot;font-size: 14px;&quot;&gt;Yes&lt;/font&gt;" style="edgeLabel;html=1;align=center;verticalAlign=middle;resizable=0;points=[];labelBackgroundColor=none;" parent="WIyWlLk6GJQsqaUBKTNV-1" vertex="1" connectable="0">
          <mxGeometry x="723" y="558" as="geometry">
            <mxPoint x="10" y="-2" as="offset" />
          </mxGeometry>
        </mxCell>
        <mxCell id="_dDXrvmrKJK-yegpXpzj-95" value="&lt;font style=&quot;font-size: 14px;&quot;&gt;No&lt;/font&gt;" style="edgeLabel;html=1;align=center;verticalAlign=middle;resizable=0;points=[];labelBackgroundColor=none;" parent="WIyWlLk6GJQsqaUBKTNV-1" vertex="1" connectable="0">
          <mxGeometry x="637.0014285714284" y="632.0033624878524" as="geometry" />
        </mxCell>
        <mxCell id="_dDXrvmrKJK-yegpXpzj-104" value="User wants&lt;br&gt;parking charge" style="strokeWidth=2;html=1;shape=mxgraph.flowchart.decision;whiteSpace=wrap;" parent="WIyWlLk6GJQsqaUBKTNV-1" vertex="1">
          <mxGeometry x="591.25" y="210" width="112.5" height="110" as="geometry" />
        </mxCell>
        <mxCell id="_dDXrvmrKJK-yegpXpzj-105" value="User wants&lt;br&gt;&lt;div&gt;pension charge&lt;/div&gt;" style="strokeWidth=2;html=1;shape=mxgraph.flowchart.decision;whiteSpace=wrap;" parent="WIyWlLk6GJQsqaUBKTNV-1" vertex="1">
          <mxGeometry x="591.25" y="510" width="112.5" height="110" as="geometry" />
        </mxCell>
        <mxCell id="_dDXrvmrKJK-yegpXpzj-109" value="" style="edgeStyle=orthogonalEdgeStyle;rounded=0;orthogonalLoop=1;jettySize=auto;html=1;entryX=0.5;entryY=0;entryDx=0;entryDy=0;entryPerimeter=0;" parent="WIyWlLk6GJQsqaUBKTNV-1" target="_dDXrvmrKJK-yegpXpzj-2" edge="1">
          <mxGeometry relative="1" as="geometry">
            <mxPoint x="148.7714285714285" y="180" as="sourcePoint" />
            <Array as="points">
              <mxPoint x="149" y="201" />
              <mxPoint x="149" y="201" />
            </Array>
          </mxGeometry>
        </mxCell>
        <mxCell id="_dDXrvmrKJK-yegpXpzj-165" value="" style="edgeStyle=orthogonalEdgeStyle;rounded=0;orthogonalLoop=1;jettySize=auto;html=1;exitX=0.5;exitY=1;exitDx=0;exitDy=0;entryX=0.5;entryY=0;entryDx=0;entryDy=0;entryPerimeter=0;" parent="WIyWlLk6GJQsqaUBKTNV-1" source="_dDXrvmrKJK-yegpXpzj-164" target="_dDXrvmrKJK-yegpXpzj-2" edge="1">
          <mxGeometry relative="1" as="geometry" />
        </mxCell>
        <mxCell id="_dDXrvmrKJK-yegpXpzj-164" value="RateIO&lt;br&gt;Load tax rates from CSV file named &quot;rates.csv&quot;" style="shape=process;whiteSpace=wrap;html=1;backgroundOutline=1;strokeWidth=2;" parent="WIyWlLk6GJQsqaUBKTNV-1" vertex="1">
          <mxGeometry x="49.38" y="122.5" width="198.75" height="60" as="geometry" />
        </mxCell>
        <mxCell id="LBebAYgfIPr3Iby076l5-2" value="" style="edgeStyle=orthogonalEdgeStyle;rounded=0;orthogonalLoop=1;jettySize=auto;html=1;" edge="1" parent="WIyWlLk6GJQsqaUBKTNV-1" source="LBebAYgfIPr3Iby076l5-1" target="_dDXrvmrKJK-yegpXpzj-91">
          <mxGeometry relative="1" as="geometry" />
        </mxCell>
        <mxCell id="LBebAYgfIPr3Iby076l5-1" value="Run UserInterface.displayEmployeeSalary" style="shape=process;whiteSpace=wrap;html=1;backgroundOutline=1;strokeWidth=2;" vertex="1" parent="WIyWlLk6GJQsqaUBKTNV-1">
          <mxGeometry x="516.87" y="720" width="261.25" height="70" as="geometry" />
        </mxCell>
      </root>
    </mxGraphModel>
  </diagram>
</mxfile>
